# xmcd
#
# Track frame offsets:
#	180
#	21362
#	34012
#	55037
#	75829
#	103401
#	115147
#	130597
#	167093
#	187603
#
# Disc length: 2777 seconds
#
# Revision: 1
# Processed by: cddbd v1.5.2PL0 Copyright (c) Steve Scherf et al.
# Submitted via: audiograbber 1.83.01
#
DISCID=6f0ad70a
DTITLE=Morrison Calvinsky - TV-Blue Windows
DYEAR=1995
DGENRE=Blues
TTITLE0=Hobo On The Run
TTITLE1=Ike
TTITLE2=TV-Blue Windows
TTITLE3=Prime Time War
TTITLE4=Lay Down
TTITLE5=Like Poor Boys
TTITLE6=The Window Owl
TTITLE7=Heatweave
TTITLE8=Snowball Warrior
TTITLE9=Lucky One
EXTD=
EXTT0=
EXTT1=
EXTT2=
EXTT3=
EXTT4=
EXTT5=
EXTT6=
EXTT7=
EXTT8=
EXTT9=
PLAYORDER=
